<svg xmlns="http://www.w3.org/2000/svg" width="100.041" height="87.74" viewBox="0 0 100.041 87.74"><path d="M33.584,87.74H4.053a4.114,4.114,0,0,1-1.109-.15,3.958,3.958,0,0,1-.972-.419A4.094,4.094,0,0,1,0,83.757a3.958,3.958,0,0,1,.123-1.051,4.114,4.114,0,0,1,.424-1.035l14.763-25.58L33.584,87.74Zm62.405,0H59.633l.235-.136L28.512,33.3l-.067.038,18.07-31.31a4.114,4.114,0,0,1,.684-.885,3.958,3.958,0,0,1,.849-.632,4.094,4.094,0,0,1,3.943,0,3.958,3.958,0,0,1,.849.632,4.114,4.114,0,0,1,.684.885L99.494,81.671a4.114,4.114,0,0,1,.424,1.035,3.958,3.958,0,0,1,.123,1.051,4.094,4.094,0,0,1-1.971,3.414,3.958,3.958,0,0,1-.972.419A4.114,4.114,0,0,1,95.989,87.74Z" transform="translate(0 0)" fill="#e4e4e4"/><style>path { fill: #0F0F0F; } @media(prefers-color-scheme: dark) { path { fill: #e4e4e4; }}</style></svg>