<?xml version="1.0" encoding="utf-8"?>
<!-- Generator: Adobe Illustrator 25.4.1, SVG Export Plug-In . SVG Version: 6.00 Build 0)  -->
<svg version="1.1" id="Layer_1" xmlns="http://www.w3.org/2000/svg" xmlns:xlink="http://www.w3.org/1999/xlink" x="0px" y="0px"
	 viewBox="0 0 1200 1200" style="enable-background:new 0 0 1200 1200;" xml:space="preserve">
<style type="text/css">
	.st0{fill:#F5F5F5;}
	.st1{fill-rule:evenodd;clip-rule:evenodd;fill:#F5F5F5;}
</style>
<g id="g1865" transform="translate(-1.668 -1.1)">
	<path id="path1857" class="st0" d="M339.8,502.9c0,14.8,1.6,26.7,4.4,35.5c3.2,8.8,7.2,18.4,12.8,28.7c2,3.2,2.8,6.4,2.8,9.2
		c0,4-2.4,8-7.6,12l-25.1,16.8c-3.6,2.4-7.2,3.6-10.4,3.6c-4,0-8-2-12-5.6c-5.6-6-10.4-12.4-14.4-18.8c-4-6.8-8-14.4-12.4-23.5
		c-31.1,36.7-70.2,55.1-117.3,55.1c-33.5,0-60.3-9.6-79.8-28.7s-29.5-44.7-29.5-76.6c0-33.9,12-61.5,36.3-82.2s56.7-31.1,97.8-31.1
		c13.6,0,27.5,1.2,42.3,3.2c14.8,2,29.9,5.2,45.9,8.8V380c0-30.3-6.4-51.5-18.8-63.9c-12.8-12.4-34.3-18.4-65.1-18.4
		c-14,0-28.3,1.6-43.1,5.2c-14.8,3.6-29.1,8-43.1,13.6c-6.4,2.8-11.2,4.4-14,5.2s-4.8,1.2-6.4,1.2c-5.6,0-8.4-4-8.4-12.4V291
		c0-6.4,0.8-11.2,2.8-14s5.6-5.6,11.2-8.4c14-7.2,30.7-13.2,50.3-18c19.6-5.2,40.3-7.6,62.3-7.6c47.5,0,82.2,10.8,104.6,32.3
		c22,21.6,33.1,54.3,33.1,98.2v129.3H339.8z M177.8,563.6c13.2,0,26.7-2.4,41.1-7.2c14.4-4.8,27.1-13.6,37.9-25.5
		c6.4-7.6,11.2-16,13.6-25.5c2.4-9.6,4-21.2,4-34.7v-16.8c-11.6-2.8-23.9-5.2-36.7-6.8s-25.1-2.4-37.5-2.4c-26.7,0-46.3,5.2-59.5,16
		c-13.2,10.8-19.6,25.9-19.6,45.9c0,18.8,4.8,32.7,14.8,42.3C145.5,558.8,159.4,563.6,177.8,563.6L177.8,563.6z M498.3,606.7
		c-7.2,0-12-1.2-15.2-4c-3.2-2.4-6-8-8.4-15.6l-93.8-308.5c-2.4-8-3.6-13.2-3.6-16c0-6.4,3.2-10,9.6-10H426c7.6,0,12.8,1.2,15.6,4
		c3.2,2.4,5.6,8,8,15.6l67.1,264.2l62.3-264.2c2-8,4.4-13.2,7.6-15.6c3.2-2.4,8.8-4,16-4h31.9c7.6,0,12.8,1.2,16,4
		c3.2,2.4,6,8,7.6,15.6L721,539.6l69-267.4c2.4-8,5.2-13.2,8-15.6c3.2-2.4,8.4-4,15.6-4h37.1c6.4,0,10,3.2,10,10c0,2-0.4,4-0.8,6.4
		c-0.4,2.4-1.2,5.6-2.8,10l-96.2,308.5c-2.4,8-5.2,13.2-8.4,15.6c-3.2,2.4-8.4,4-15.2,4H703c-7.6,0-12.8-1.2-16-4
		c-3.2-2.8-6-8-7.6-16l-61.9-257.4l-61.5,257c-2,8-4.4,13.2-7.6,16c-3.2,2.8-8.8,4-16,4H498.3z M1011.1,617.5
		c-20.8,0-41.5-2.4-61.5-7.2s-35.5-10-45.9-16c-6.4-3.6-10.8-7.6-12.4-11.2c-1.6-3.6-2.4-7.6-2.4-11.2v-20.4
		c0-8.4,3.2-12.4,9.2-12.4c2.4,0,4.8,0.4,7.2,1.2s6,2.4,10,4c13.6,6,28.3,10.8,43.9,14c16,3.2,31.5,4.8,47.5,4.8
		c25.1,0,44.7-4.4,58.3-13.2c13.6-8.8,20.8-21.6,20.8-37.9c0-11.2-3.6-20.4-10.8-27.9c-7.2-7.6-20.8-14.4-40.3-20.8l-57.9-18
		c-29.1-9.2-50.7-22.7-63.9-40.7c-13.2-17.6-20-37.1-20-57.9c0-16.8,3.6-31.5,10.8-44.3c7.2-12.8,16.8-23.9,28.7-32.7
		c12-9.2,25.5-16,41.5-20.8s32.7-6.8,50.3-6.8c8.8,0,18,0.4,26.7,1.6c9.2,1.2,17.6,2.8,25.9,4.4c8,2,15.6,4,22.7,6.4
		c7.2,2.4,12.8,4.8,16.8,7.2c5.6,3.2,9.6,6.4,12,10c2.4,3.2,3.6,7.6,3.6,13.2v18.8c0,8.4-3.2,12.8-9.2,12.8c-3.2,0-8.4-1.6-15.2-4.8
		c-22.7-10.4-48.3-15.6-76.6-15.6c-22.7,0-40.7,3.6-53.1,11.2c-12.4,7.6-18.8,19.2-18.8,35.5c0,11.2,4,20.8,12,28.3
		c8,7.6,22.7,15.2,43.9,22l56.7,18c28.7,9.2,49.5,22,61.9,38.3c12.4,16.4,18.4,35.1,18.4,55.9c0,17.2-3.6,32.7-10.4,46.3
		c-7.2,13.6-16.8,25.5-29.1,35.1c-12.4,10-27.1,17.2-44.3,22.3C1050.3,614.7,1031.5,617.5,1011.1,617.5L1011.1,617.5z"/>
	<g id="g1863">
		<path id="path1859" class="st1" d="M1086.6,811.4c-131.3,97-322.1,148.5-486.1,148.5c-229.9,0-437-85-593.5-226.3
			c-12.4-11.2-1.2-26.3,13.6-17.6c169.2,98.2,378,157.6,593.9,157.6c145.7,0,305.7-30.3,453-92.6
			C1089.4,771.1,1108.1,795.5,1086.6,811.4z"/>
		<path id="path1861" class="st1" d="M1141.2,749.2c-16.8-21.6-111-10.4-153.7-5.2c-12.8,1.6-14.8-9.6-3.2-18
			c75-52.7,198.4-37.5,212.7-20c14.4,18-4,141.3-74.2,200.4c-10.8,9.2-21.2,4.4-16.4-7.6C1122.5,859.3,1158,770.3,1141.2,749.2z"/>
	</g>
</g>
</svg>
