<?xml version="1.0" encoding="utf-8"?>
<!-- Generator: Adobe Illustrator 25.4.1, SVG Export Plug-In . SVG Version: 6.00 Build 0)  -->
<svg version="1.1"
	 id="svg3476" inkscape:version="0.91 r13725" sodipodi:docname="CSS3.svg" xmlns:cc="http://creativecommons.org/ns#" xmlns:dc="http://purl.org/dc/elements/1.1/" xmlns:inkscape="http://www.inkscape.org/namespaces/inkscape" xmlns:rdf="http://www.w3.org/1999/02/22-rdf-syntax-ns#" xmlns:sodipodi="http://sodipodi.sourceforge.net/DTD/sodipodi-0.dtd" xmlns:svg="http://www.w3.org/2000/svg"
	 xmlns="http://www.w3.org/2000/svg" xmlns:xlink="http://www.w3.org/1999/xlink" x="0px" y="0px" viewBox="0 0 409.6 409.6"
	 style="enable-background:new 0 0 409.6 409.6;" xml:space="preserve">
<style type="text/css">
	.st0{fill:#212121;}
	.st1{fill:#FFFFFF;}
	.st2{opacity:0.8;fill:#FFFFFF;}
	.st3{opacity:0.9;fill:#FFFFFF;}
	.st4{opacity:0.6;fill:#FFFFFF;}
	.st5{opacity:0.5;fill:#FFFFFF;}
	.st6{opacity:0.8;fill:#212121;}
	.st7{opacity:0.6;fill:#212121;}
	.st8{opacity:0.5;fill:#212121;}
</style>
<sodipodi:namedview  bordercolor="#666666" borderopacity="1.0" fit-margin-bottom="0" fit-margin-left="0" fit-margin-right="0" fit-margin-top="0" id="base" inkscape:current-layer="layer1" inkscape:cx="181.367" inkscape:cy="256" inkscape:document-units="px" inkscape:pageopacity="0.0" inkscape:pageshadow="2" inkscape:window-height="704" inkscape:window-maximized="1" inkscape:window-width="1366" inkscape:window-x="0" inkscape:window-y="27" inkscape:zoom="0.35" pagecolor="#ffffff" showgrid="false">
	</sodipodi:namedview>
<g id="layer1" transform="translate(-193.633,-276.3622)" inkscape:groupmode="layer" inkscape:label="Calque 1">
	<g id="g3013" transform="translate(119,276.3622)">
		<path id="path2999" inkscape:connector-curvature="0" class="st0" d="M202.6,0h44v18.4H221v18.4h25.6v18.4h-44V0z"/>
		<path id="path3001" inkscape:connector-curvature="0" class="st0" d="M255.4,0h44v16h-25.6v3.2h25.6V56h-44V39.2H281V36h-25.6V0z"
			/>
		<path id="path3003" inkscape:connector-curvature="0" class="st0" d="M308.2,0h44v16h-25.6v3.2h25.6V56h-44V39.2h25.6V36h-25.6V0z
			"/>
	</g>
</g>
<path class="st0" d="M852.2-788h23v22.8h21.2V-788h23v69h-23v-23h-21v23h-23.2 M949.8-765h-20.3v-23h63.7v23h-20.4v46h-23
	 M1003.3-788h24.1l14.8,24.3L1057-788h24.1v69h-23v-34.2l-16.1,24.8l-16.1-24.8v34.2h-22.6 M1092.5-788h23v46.2h32.6v22.8h-55.6"/>
<rect x="1677" y="-914.2" class="st0" width="1448.6" height="1471"/>
<g>
	<path class="st1" d="M811.6-688l33,370.4l148.1,41l148.7-41.2l33-370.2H811.6z M1113-341.6l-120,33.5V-355l-93.2-26l-6.4-71.3H939
		l3.2,36.3l50.7,13.6l0.1,0V-475h-0.2v-0.1H891.4L879-612.3h114v-45.3h148.3L1113-341.6z"/>
	<polygon class="st1" points="993,-566.9 993,-520.4 933,-520.4 928.8,-566.9 	"/>
	<rect x="992.8" y="-475.1" class="st1" width="0.2" height="0.1"/>
	<polygon class="st1" points="993,-402.4 993,-402.4 992.9,-402.4 	"/>
	<polygon class="st2" points="1141.3,-657.6 1113,-341.6 993,-308.1 993,-355.2 1085.8,-381 1098.3,-520.4 993,-520.4 993,-566.9 
		1102.4,-566.9 1106.6,-612.3 993,-612.3 993,-657.6 	"/>
	<polygon class="st3" points="1048.8,-475 1043.5,-416 993,-402.4 993,-475 	"/>
	<polygon class="st4" points="993,-402.4 993,-355 899.8,-381 893.4,-452.3 939,-452.3 942.2,-416 992.9,-402.4 	"/>
	<polygon class="st4" points="993,-566.9 928.8,-566.9 933,-520.4 993,-520.4 993,-475.1 891.4,-475.1 879,-612.3 993,-612.3 	"/>
	<path class="st1" d="M992.8-475.1L992.8-475.1l0.2,0.1v-0.1H992.8z M992.9-402.4L992.9-402.4L992.9-402.4L992.9-402.4z"/>
	<polygon class="st5" points="1106.6,-612.3 1102.4,-566.9 993,-566.9 993,-612.3 	"/>
	<polygon class="st5" points="1098.3,-520.4 1085.8,-381 993,-355.2 993,-402.4 1043.5,-416 1048.8,-475 993,-475 993,-520.4 	"/>
</g>
<g id="layer1_00000064311963213467156700000000457707122476451254_" transform="translate(-193.633,-276.3622)" inkscape:groupmode="layer" inkscape:label="Calque 1">
	<g id="g3013_00000047774260475428513690000017313141672401756348_" transform="translate(119,276.3622)">
		<path class="st0" d="M134.3,79.9l26.4,296.2L279.3,409l118.8-32.9l26.4-296.2H134.3z M375.5,357.2l-96,26.6v-37.7l-0.2,0
			l-74.4-20.7l-5.1-57h36.5l2.6,29l40.5,10.9l0,0v0l0.1,0v-58h-81.3l-3.2-36.3h84.6v-37.2h-87.8l-3.3-36.3h91.1v-36.3h118.6
			L375.5,357.2z"/>
		<polygon class="st0" points="279.4,308.4 279.3,308.4 279.3,308.4 		"/>
		<polygon class="st6" points="398.1,104.2 375.5,357.2 279.4,383.9 279.4,346.2 353.8,325.6 354.3,319.4 362.9,223.8 363.8,214 
			370.3,140.5 279.4,140.5 279.4,104.2 		"/>
		<polygon class="st0" points="330.5,176.8 327.2,214 279.4,214 279.4,176.8 		"/>
		<polygon class="st0" points="324,250.3 319.8,297.5 279.4,308.4 279.4,250.3 		"/>
		<polygon class="st7" points="279.4,214 279.4,250.3 198.1,250.3 194.9,214 		"/>
		<polygon class="st7" points="279.4,140.5 279.4,176.8 191.6,176.8 188.3,140.5 		"/>
		<polygon class="st7" points="279.4,308.4 279.4,346.2 279.3,346.2 204.9,325.6 199.8,268.5 236.2,268.5 238.8,297.5 279.3,308.4 
			279.3,308.4 		"/>
		<polygon class="st8" points="370.3,140.5 363.8,214 362.9,223.8 354.3,319.4 353.8,325.6 279.4,346.2 279.4,308.4 319.8,297.5 
			324,250.3 279.4,250.3 279.4,214 327.2,214 330.5,176.8 279.4,176.8 279.4,140.5 		"/>
		<polygon class="st0" points="279.4,308.4 279.3,308.4 279.3,308.4 		"/>
	</g>
</g>
</svg>
