<?xml version="1.0" encoding="utf-8"?>
<!-- Generator: Adobe Illustrator 25.4.1, SVG Export Plug-In . SVG Version: 6.00 Build 0)  -->
<svg version="1.1" id="logo_x5F_firebase_x5F_192px_x5F_clr"
	 xmlns="http://www.w3.org/2000/svg" xmlns:xlink="http://www.w3.org/1999/xlink" x="0px" y="0px" viewBox="0 0 1260.2 1260.2"
	 style="enable-background:new 0 0 1260.2 1260.2;" xml:space="preserve">
<style type="text/css">
	.st0{fill:#FFFFFF;}
	.st1{opacity:0.5;fill:#FFFFFF;}
	.st2{opacity:0.8;fill:#FFFFFF;}
</style>
<g>
	<path class="st0" d="M257,1003.2L257,1003.2L41.4,787.6C15.9,761.4,0,724.3,0,688.1c0-16.8,9.5-43,16.6-58l199-414.5l0,0.2v674.7
		c0.1,31.9,2.4,51.9,8.7,68c5.9,13.3,15.9,26.7,32.8,44.4L257,1003.2z"/>
	<path class="st1" d="M993.4,255.6c-37.3-35.8-98.5-31.7-122.9-31.7H223.8l-8.3-8.3v0l397.9-199C631.6,5.7,659.6,0,688.1,0
		c33.2,0,72.4,22.5,91.2,41.4l213.8,213.8C993.2,255.4,993.3,255.5,993.4,255.6C993.4,255.6,993.4,255.6,993.4,255.6z"/>
	<polygon class="st1" points="1036.3,1036.3 1036.3,1260.2 514,1260.2 290.2,1036.3 290.2,1036.3 1036.3,1036.3 	"/>
	<path class="st2" d="M1036.3,1036.3H290.2l-24.9-24.9c-3-3-5.8-6-8.3-9l0,0.5c-16.8-17.7-26.8-31-32.8-44.4
		c-6.3-16.1-8.5-36.1-8.7-68V215.6L1028,1028L1036.3,1036.3z"/>
	<path class="st0" d="M1260.2,522.3v514h-223.9l0,0l-8.3-8.3L223.9,223.9v0h646.7c24.5,0,85.6-4,122.9,31.7c0,0,0,0,0,0
		c0.5,0.5,1,1,1.5,1.4L1256,518.2L1260.2,522.3z"/>
</g>
</svg>
