<?xml version="1.0" encoding="utf-8"?>
<!-- Generator: Adobe Illustrator 25.4.1, SVG Export Plug-In . SVG Version: 6.00 Build 0)  -->
<svg version="1.1" id="Layer_1" xmlns="http://www.w3.org/2000/svg" xmlns:xlink="http://www.w3.org/1999/xlink" x="0px" y="0px"
	 viewBox="0 0 504.1 420.1" style="enable-background:new 0 0 504.1 420.1;" xml:space="preserve">
<style type="text/css">
	.st0{fill:#092E20;}
</style>
<path class="st0" d="M476.1,102H28c-15.5,0-28,12.5-28,28v160c0,15.5,12.5,28,28,28h448.1c15.5,0,28-12.5,28-28V130
	C504.1,114.6,491.5,102,476.1,102z M35.5,211.3c0-24.3,16.1-40.2,41.1-40.2c3.9,0,6.8,0.3,10.4,1.2V136h23.9v110.5
	c-12.2,2.3-21.2,3.2-31,3.2C50.7,249.7,35.5,236.5,35.5,211.3z M148.8,228.2c0,19.1-1.4,28.2-5.6,36.1c-3.9,7.6-9,12.4-19.5,17.7
	l-22.2-10.5c10.5-5,15.7-9.3,18.9-16c3.4-6.8,4.5-14.7,4.5-35.5v-47.1h23.9V228.2z M148.8,160.6h-23.9v-24.5h23.9V160.6z
	 M221.3,247.4c-10.7,1.6-24.2,2.6-34.1,2.6c-20,0-29-7-29-22.5c0-16.7,11.9-24.5,41.2-27v-5.3c0-4.3-2.2-5.9-8.2-5.9
	c-8.8,0-18.8,2.5-28.1,7.3v-18.4c10.5-5,20.6-7.1,31.6-7.1c12.2,0,20.3,3.2,23.9,9.6c2,3.6,2.6,8.2,2.6,18.1L221.3,247.4
	L221.3,247.4z M303.3,248.8h-23.9v-45.9c0-9.1-3.1-12.6-11.6-12.6c-3.3,0-6.2,0.3-11,1.7v56.7H233v-72.2c14.1-3.7,25.7-5.4,37.5-5.4
	c12.2,0,21.1,2.8,26.4,8.2c5,5.1,6.5,10.7,6.5,22.6v46.9H303.3z M383,191.3v2.5l0.3,10.1l0.2,13c0.2,3.2,0.2,6.5,0.3,9.8v6.5
	c0,20.5-1.7,30.1-6.8,38c-7.4,11.6-20.3,17.4-38.6,17.4c-9.3,0-17.4-1.4-25.7-4.7v-22c8.4,4.3,16.7,6.4,25.6,6.4
	c15.6,0,22.3-6.4,22.3-21.5v-0.5c-4.7,2.3-9.3,3.3-15.5,3.3c-20.9,0-34.3-13.8-34.3-35.6c0-27.1,19.7-42.5,54.6-42.5
	c10.2,0,19.7,1.1,31.2,3.4l-8.2,17.2C382,190.7,387.8,191.7,383,191.3z M432.6,250.8c-23.9,0-38.6-15-38.6-39.2
	c0-25.1,15.2-40.8,39.5-40.8c23.9,0,38.5,15,38.5,39.4C472,235.1,456.8,250.8,432.6,250.8z"/>
<path class="st0" d="M87,229.9c-3.4,0.5-5.6,0.6-8.2,0.6c-12.2,0-18.9-7-18.9-19.7c0-13,7-20.5,19.1-20.5c2.9,0,5.3,0.3,8,1.2
	C87,191.6,87,229.9,87,229.9z"/>
<path class="st0" d="M200.6,216.3v16c-4.7,0.8-7.9,1.1-11.5,1.1c-6.5,0-9.5-2.2-9.5-6.8C179.6,220.3,184.8,217.8,200.6,216.3z"/>
<path class="st0" d="M360.5,220.5v8.2c-3.1,0.9-5.7,1.5-9,1.5c-10.5,0-16.4-6.8-16.4-18.8c0-8.4,3-14.3,8.7-17.5
	c3.7-2.3,9.1-3.6,13.8-3.4h2.5v1.9l0.2,7.9l0.2,11C360.4,214.6,360.5,217.7,360.5,220.5z"/>
<path class="st0" d="M447.7,210.8c0,13.2-5.4,20.8-14.6,20.8c-9.3,0-14.7-7.6-14.7-20.8s5.4-20.8,14.9-20.8
	C442.4,190,447.7,197.8,447.7,210.8z"/>
</svg>
