<?xml version="1.0" encoding="utf-8"?>
<!-- Generator: Adobe Illustrator 25.4.1, SVG Export Plug-In . SVG Version: 6.00 Build 0)  -->
<svg version="1.1" id="Layer_1" xmlns="http://www.w3.org/2000/svg" xmlns:xlink="http://www.w3.org/1999/xlink" x="0px" y="0px"
	 viewBox="0 0 1316 1316" style="enable-background:new 0 0 1316 1316;" xml:space="preserve">
<g>
	<path d="M731.9,248.4v56.4l-3.7,3.1l-3.7,3.1H601.6l-3.7-3.1l-3.7-3.1v-56.4c0-53.6,0.1-56.5,2.5-59.1l2.5-2.8h127.6l2.5,2.8
		C731.8,191.9,731.9,194.8,731.9,248.4z"/>
	<path d="M893.7,489.6v112.4l-3.3,3.1l-3.1,3.3H762.5l-3.1-3.3l-3.3-3.1v-55.6c0-54.3,0-55.7,2.8-59.1l2.6-3.4h63.2
		c62.9,0,63,0,66,2.9L893.7,489.6z"/>
	<path d="M731.9,449.7c-0.4,2.4-2,5.5-3.4,6.9c-2.4,2.4-4.8,2.5-65.3,2.5c-59.8,0-62.9-0.1-65.8-2.5l-3.1-2.5V340.9l3.7-3.1l3.7-3.1
		h122.9l3.7,3.1l3.7,3.1l0.4,52.3C732.5,421.9,732.3,447.3,731.9,449.7z"/>
	<path d="M731.9,489v113.2l-3.7,3.1l-3.7,3.1H601.6l-3.7-3.1l-3.7-3.1v-56.4c0-53.6,0.1-56.5,2.5-59.1c2.5-2.8,3.1-2.8,65.7-2.8
		c60.3,0,63.4,0.1,66.3,2.5L731.9,489z"/>
	<path d="M571.3,489.6v112.4l-3.3,3.1l-3.1,3.3H440.2l-3.1-3.3l-3.3-3.1v-56c0-55.7,0-56.1,2.9-59.1l2.8-3h63
		c62.8,0,62.9,0,65.9,2.9L571.3,489.6z"/>
	<path d="M571.3,341v55.6c0,54.3,0,55.7-2.8,59.1l-2.6,3.4h-63.2c-62.9,0-63,0-66-2.9l-3-2.8V341l3.3-3.1l3.1-3.3h124.8l3.1,3.3
		L571.3,341z"/>
	<path d="M408.8,341v55.6c0,54.3,0,55.7-2.8,59.1l-2.6,3.4H276.6l-2.6-3.4c-2.8-3.4-2.8-4.8-2.8-59.1V341l3.3-3.1l3.1-3.3h124.8
		l3.1,3.3L408.8,341z"/>
	<path d="M408.8,489.6v112.4l-3.3,3.1l-3.1,3.3H277.7l-3.1-3.3l-3.3-3.1v-56c0-55.7,0-56.1,2.9-59.1l2.8-3h63
		c62.8,0,62.9,0,65.9,2.9L408.8,489.6z"/>
	<path d="M249,546.5v55.6l-3.3,3.1l-3.1,3.3H117.8l-3.1-3.3l-3.3-3.1v-56.2c0-54.6,0.1-56.2,2.6-59l2.8-2.9h126.9l2.6,3.4
		C249,490.8,249,492.3,249,546.5z"/>
	<path d="M1310.9,569.8c-19.9,50.8-67.8,90.9-125.9,105.4c-17.3,4.3-27.8,5.6-49.9,6.6l-21.5,0.8l-8.6,21
		c-43.9,105.5-92.5,182.3-155.4,245.1c-44.7,44.7-90.9,78-148.1,106.9c-78.1,39.4-163.2,62.6-264.7,72.2
		c-24.8,2.4-130.1,2.4-152.7,0c-92.8-9.6-160.7-27.9-210.2-57.1C83.8,1017.6,23.3,906.6,5.2,761.8c-5.4-42.5-6.8-88.6-3.3-100.5
		c3.8-13,14.3-23.1,28.2-27.1c6.4-2,47-2.1,447.4-2.1c467.7,0,447.7,0.1,476.5-5.9c13.6-2.9,29.7-7.9,39.7-12.3l8.5-3.8l-6.6-12.7
		c-14.8-28.8-19.8-49.5-19.9-83.2c0-13.4,0.7-27,1.6-32.8c4.6-26.1,15.3-57.8,26.7-78.6c5.4-9.8,22.1-35.4,23.2-35.4
		c0.4,0,6.4,3.3,13.5,7.3c34.2,19.4,64.3,51.1,82.2,86.8c6.4,12.8,14,34.9,16.4,47.3l1.7,8.6l5.1-0.1c2.8-0.1,11.5-0.8,19.4-1.7
		c37.7-3.9,72.9-0.5,104.3,9.8c16,5.4,24.5,9.8,37.7,19.8C1318.3,553.5,1318.1,551.4,1310.9,569.8z"/>
</g>
</svg>
