<svg xmlns="http://www.w3.org/2000/svg" viewBox="0 0 262 262">
    <g transform="translate(3 3)">
        <circle cx="128" cy="128" r="128" fill="none" stroke="#9feaf9" stroke-width="6"/>
        <path d="M100.5,71.69c-26-4.736-46.567.221-54.762,14.415-6.115,10.592-4.367,24.635,4.24,39.646a2.667,2.667,0,1,0,4.627-2.653c-7.753-13.522-9.262-25.641-4.248-34.326,6.808-11.791,25.148-16.213,49.187-11.835a2.667,2.667,0,1,0,.956-5.247ZM63.5,144c10.515,11.555,24.176,22.394,39.756,31.388,37.723,21.78,77.883,27.6,97.675,14.106a2.667,2.667,0,1,0-3.005-4.406c-17.714,12.078-55.862,6.548-92-14.318-15.114-8.726-28.343-19.222-38.478-30.36A2.667,2.667,0,1,0,63.5,144Z" fill="#9feaf9"/>
        <path d="M194.62,140.753c17.028-20.116,22.973-40.348,14.795-54.512C203.4,75.818,190.677,70.315,173.77,70.1a2.667,2.667,0,1,0-.069,5.333c15.205.2,26.165,4.939,31.1,13.48,6.792,11.765,1.49,29.807-14.248,48.4a2.667,2.667,0,1,0,4.071,3.446ZM150.859,72.578c-15.4,3.3-31.784,9.749-47.522,18.835C64.395,113.9,38.992,147.049,42.52,171.088a2.667,2.667,0,1,0,5.277-.775C44.664,148.969,68.744,117.544,106,96.032c15.267-8.815,31.135-15.06,45.972-18.239a2.667,2.667,0,1,0-1.117-5.215Z" fill="#9feaf9"/>
        <path d="M87.77,187.753c8.9,24.86,23.469,40.167,39.847,40.167,11.945,0,23-8.143,31.614-22.478a2.667,2.667,0,1,0-4.571-2.748c-7.745,12.883-17.258,19.892-27.043,19.892-13.6,0-26.6-13.652-34.825-36.63a2.667,2.667,0,1,0-5.022,1.8Zm81.322-4.863a167.4,167.4,0,0,0,7.085-49.423c0-44.179-15.463-82.263-37.487-92.042a2.667,2.667,0,1,0-2.164,4.875c19.643,8.722,34.317,44.865,34.317,87.167A162.152,162.152,0,0,1,164,181.3a2.667,2.667,0,1,0,5.09,1.593Zm50.224-2.612a12.763,12.763,0,1,0-12.763,12.763A12.763,12.763,0,0,0,219.316,180.278Zm-5.333,0a7.43,7.43,0,1,1-7.43-7.43,7.43,7.43,0,0,1,7.43,7.43ZM48.5,193.041a12.763,12.763,0,1,0-12.763-12.763A12.763,12.763,0,0,0,48.5,193.041Zm0-5.333a7.43,7.43,0,1,1,7.43-7.43,7.43,7.43,0,0,1-7.43,7.43Z" fill="#9feaf9"/>
        <path d="M127.617,54.444a12.763,12.763,0,1,0-12.763-12.763,12.763,12.763,0,0,0,12.763,12.763Zm0-5.333a7.43,7.43,0,1,1,7.43-7.43,7.43,7.43,0,0,1-7.43,7.43Zm1.949,93.382a9.234,9.234,0,1,1,7.077-10.976A9.234,9.234,0,0,1,129.566,142.493Z" fill="#9feaf9"/>
    </g>
</svg>