<?xml version="1.0" encoding="utf-8"?>
<!-- Generator: Adobe Illustrator 25.4.1, SVG Export Plug-In . SVG Version: 6.00 Build 0)  -->
<svg version="1.1" id="Layer_1" xmlns="http://www.w3.org/2000/svg" xmlns:xlink="http://www.w3.org/1999/xlink" x="0px" y="0px"
	 viewBox="0 0 254.5 254.5" style="enable-background:new 0 0 254.5 254.5;" xml:space="preserve">
<style type="text/css">
	.st0{fill:#F5F5F5;}
</style>
<g>
	<g>
		<g>
			<g>
				<path class="st0" d="M19.5,112.3c-0.5,0-0.6-0.2-0.4-0.6l2.6-3.3c0.2-0.4,0.9-0.6,1.4-0.6h44.2c0.5,0,0.6,0.4,0.4,0.7l-2.1,3.2
					c-0.2,0.4-0.9,0.7-1.2,0.7L19.5,112.3z"/>
			</g>
		</g>
	</g>
	<g>
		<g>
			<g>
				<path class="st0" d="M0.8,123.6c-0.5,0-0.6-0.2-0.4-0.6l2.6-3.3c0.2-0.4,0.9-0.6,1.4-0.6h56.4c0.5,0,0.7,0.4,0.6,0.7l-1,3
					c-0.1,0.5-0.6,0.7-1.1,0.7L0.8,123.6z"/>
			</g>
		</g>
	</g>
	<g>
		<g>
			<g>
				<path class="st0" d="M30.7,135c-0.5,0-0.6-0.4-0.4-0.7l1.7-3.1c0.2-0.4,0.7-0.7,1.2-0.7h24.8c0.5,0,0.7,0.4,0.7,0.9l-0.2,3
					c0,0.5-0.5,0.9-0.9,0.9L30.7,135z"/>
			</g>
		</g>
	</g>
	<g>
		<g id="CXHf1q_4_">
			<g>
				<g>
					<path class="st0" d="M159.2,110c-7.8,2-13.1,3.5-20.8,5.4c-1.9,0.5-2,0.6-3.6-1.2c-1.9-2.1-3.2-3.5-5.8-4.7
						c-7.8-3.8-15.3-2.7-22.4,1.9c-8.4,5.4-12.7,13.5-12.6,23.5c0.1,9.9,6.9,18.1,16.7,19.4c8.4,1.1,15.5-1.9,21-8.2
						c1.1-1.4,2.1-2.8,3.3-4.6c-4.5,0-10,0-23.9,0c-2.6,0-3.2-1.6-2.4-3.7c1.6-3.8,4.6-10.3,6.3-13.5c0.4-0.7,1.2-2,3.1-2
						c6.3,0,29.6,0,45.1,0c-0.2,3.3-0.2,6.7-0.7,10c-1.4,8.9-4.7,17.1-10.1,24.3c-8.9,11.8-20.5,19.1-35.3,21
						c-12.1,1.6-23.4-0.7-33.3-8.2c-9.2-6.9-14.4-16.1-15.7-27.5c-1.6-13.5,2.4-25.6,10.5-36.3c8.8-11.5,20.4-18.8,34.7-21.4
						c11.6-2.1,22.8-0.7,32.8,6.1c6.6,4.3,11.3,10.3,14.4,17.5C161.2,109,160.7,109.7,159.2,110z"/>
				</g>
				<g>
					<path class="st0" d="M200.2,178.5c-11.3-0.2-21.5-3.5-30.2-10.9c-7.3-6.3-11.9-14.4-13.4-23.9c-2.2-14,1.6-26.4,10-37.4
						c9-11.9,19.9-18.1,34.7-20.7c12.6-2.2,24.5-1,35.3,6.3c9.8,6.7,15.8,15.7,17.5,27.6c2.1,16.7-2.7,30.3-14.2,42
						c-8.2,8.3-18.2,13.5-29.7,15.8C206.7,178,203.4,178.1,200.2,178.5z M229.6,128.5c-0.1-1.6-0.1-2.8-0.4-4.1
						c-2.2-12.3-13.5-19.2-25.2-16.5c-11.5,2.6-18.9,9.9-21.7,21.5c-2.2,9.7,2.5,19.4,11.4,23.4c6.8,3,13.6,2.6,20.2-0.7
						C223.7,147,229,139.1,229.6,128.5z"/>
				</g>
			</g>
		</g>
	</g>
</g>
</svg>
