<?xml version="1.0" encoding="utf-8"?>
<!-- Generator: Adobe Illustrator 25.4.1, SVG Export Plug-In . SVG Version: 6.00 Build 0)  -->
<svg version="1.1" id="Layer_1" xmlns="http://www.w3.org/2000/svg" xmlns:xlink="http://www.w3.org/1999/xlink" x="0px" y="0px"
	 viewBox="0 0 512 512" style="enable-background:new 0 0 512 512;" xml:space="preserve">
<style type="text/css">
	.st0{fill:#212121;}
	.st1{opacity:0.8;fill:#212121;}
	.st2{opacity:0.9;fill:#212121;}
	.st3{opacity:0.6;fill:#212121;}
	.st4{opacity:0.5;fill:#212121;}
</style>
<path class="st0" d="M108.4,0h23v22.8h21.2V0h23v69h-23V46h-21v23h-23.2 M206,23h-20.3V0h63.7v23H229v46h-23 M259.5,0h24.1
	l14.8,24.3L313.2,0h24.1v69h-23V34.8l-16.1,24.8l-16.1-24.8V69h-22.6 M348.7,0h23v46.2h32.6V69h-55.6"/>
<rect x="933.2" y="-126.2" class="st0" width="1448.6" height="1471"/>
<g>
	<path class="st0" d="M67.8,100l33,370.4l148.1,41l148.7-41.2l33-370.2H67.8z M369.2,446.5l-120,33.5V433L156,407l-6.4-71.3h45.6
		l3.2,36.3l50.7,13.6l0.1,0V313H249V313H147.6l-12.4-137.2h114v-45.3h148.3L369.2,446.5z"/>
	<polygon class="st0" points="249.2,221.1 249.2,267.6 189.2,267.6 185,221.1 	"/>
	<rect x="249" y="313" class="st0" width="0.2" height="0.1"/>
	<polygon class="st0" points="249.2,385.6 249.2,385.6 249.1,385.6 	"/>
	<polygon class="st1" points="397.5,130.5 369.2,446.5 249.2,480 249.2,432.8 342,407 354.5,267.6 249.2,267.6 249.2,221.1 
		358.6,221.1 362.8,175.8 249.2,175.8 249.2,130.5 	"/>
	<polygon class="st2" points="305,313.1 299.7,372.1 249.2,385.6 249.2,313.1 	"/>
	<polygon class="st3" points="249.2,385.6 249.2,433 156,407 149.6,335.8 195.2,335.8 198.4,372 249.1,385.6 	"/>
	<polygon class="st3" points="249.2,221.1 185,221.1 189.2,267.6 249.2,267.6 249.2,313 147.6,313 135.2,175.8 249.2,175.8 	"/>
	<path class="st0" d="M249,313L249,313l0.2,0.1V313H249z M249.1,385.6L249.1,385.6L249.1,385.6L249.1,385.6z"/>
	<polygon class="st4" points="362.8,175.8 358.6,221.1 249.2,221.1 249.2,175.8 	"/>
	<polygon class="st4" points="354.5,267.6 342,407 249.2,432.8 249.2,385.6 299.7,372 305,313 249.2,313 249.2,267.6 	"/>
</g>
</svg>
