<?xml version="1.0" encoding="utf-8"?>
<!-- Generator: Adobe Illustrator 25.4.1, SVG Export Plug-In . SVG Version: 6.00 Build 0)  -->
<svg version="1.1" id="Layer_1" xmlns="http://www.w3.org/2000/svg" xmlns:xlink="http://www.w3.org/1999/xlink" x="0px" y="0px"
	 viewBox="0 0 256 256" style="enable-background:new 0 0 256 256;" xml:space="preserve">
<style type="text/css">
	.st0{fill:#F5F5F5;}
</style>
<g>
	<path class="st0" d="M0,0v256h256V0H0z M123.3,193.7c0,29-17,42.2-41.8,42.2c-22.4,0-35.4-11.6-42-25.6l22.8-13.8
		c4.4,7.8,8.4,14.4,18,14.4c9.2,0,15-3.6,15-17.6V98h28V193.7z M231.8,214.6c-2.9,5.1-6.7,9.3-11.6,12.5c-4.9,3.2-10.6,5.5-17.1,6.8
		c-6.5,1.4-13.3,2.1-20.6,2.1c-7.4,0-14.4-0.6-21.1-1.9c-6.7-1.3-12.5-3.1-17.4-5.7v-30.2c5.5,4.6,11.4,8,17.8,10.3
		c6.4,2.3,12.9,3.4,19.4,3.4c3.8,0,7.2-0.4,10-1c2.9-0.7,5.2-1.6,7.2-2.9c1.9-1.2,3.3-2.7,4.3-4.3c0.9-1.7,1.4-3.5,1.4-5.4
		c0-2.6-0.8-5-2.3-7.1c-1.5-2.1-3.5-4-6.2-5.8c-2.6-1.8-5.7-3.5-9.3-5.1c-3.6-1.6-7.4-3.3-11.6-5c-10.5-4.4-18.4-9.8-23.6-16.1
		c-5.2-6.4-7.8-14-7.8-23c0-7,1.4-13.1,4.2-18.2c2.8-5.1,6.7-9.2,11.5-12.5c4.9-3.3,10.5-5.7,16.9-7.2c6.4-1.5,13.2-2.3,20.3-2.3
		c7,0,13.2,0.4,18.7,1.3c5.4,0.8,10.4,2.2,15,3.9v28.2c-2.3-1.6-4.7-3-7.4-4.2c-2.7-1.2-5.4-2.2-8.2-3c-2.8-0.8-5.6-1.4-8.4-1.8
		c-2.8-0.4-5.5-0.6-8-0.6c-3.4,0-6.6,0.3-9.4,1c-2.8,0.7-5.2,1.6-7.2,2.8c-1.9,1.2-3.4,2.6-4.5,4.3c-1.1,1.7-1.6,3.5-1.6,5.6
		c0,2.3,0.6,4.3,1.8,6.1c1.2,1.8,2.9,3.5,5.1,5.1c2.2,1.6,4.9,3.2,8,4.7c3.1,1.6,6.7,3.1,10.6,4.8c5.4,2.3,10.2,4.7,14.5,7.2
		c4.3,2.5,8,5.4,11,8.6c3.1,3.2,5.4,6.9,7.1,11s2.5,8.9,2.5,14.4C236.1,203.1,234.6,209.4,231.8,214.6z"/>
</g>
</svg>
