<?xml version="1.0" encoding="utf-8"?>
<!-- Generator: Adobe Illustrator 25.4.1, SVG Export Plug-In . SVG Version: 6.00 Build 0)  -->
<svg version="1.1" id="Layer_1" xmlns="http://www.w3.org/2000/svg" xmlns:xlink="http://www.w3.org/1999/xlink" x="0px" y="0px"
	 viewBox="0 0 512 512" style="enable-background:new 0 0 512 512;" xml:space="preserve">
<style type="text/css">
	.st0{fill:#212121;}
	.st1{opacity:0.75;fill:#F5F5F5;}
	.st2{fill:#F5F5F5;}
	.st3{opacity:0.75;fill-rule:evenodd;clip-rule:evenodd;fill:#F5F5F5;}
</style>
<rect x="1386.8" y="-680.3" class="st0" width="4078.3" height="3240.3"/>
<g>
	<path class="st1" d="M253.2,412.5c-1.7,0-3.4-0.5-4.9-1.3l-15.4-9.1c-2.3-1.3-1.2-1.7-0.5-2c3.1-1,3.7-1.3,6.9-3.1
		c0.3-0.2,0.8-0.1,1.2,0.1l11.8,7.1c0.5,0.2,1,0.2,1.4,0l46.1-26.7c0.5-0.2,0.7-0.7,0.7-1.3V323c0-0.6-0.2-1-0.7-1.3l-46.1-26.6
		c-0.5-0.2-1-0.2-1.4,0l-46.1,26.6c-0.5,0.2-0.7,0.8-0.7,1.3v53.3c0,0.5,0.2,1,0.7,1.3l12.6,7.3c6.8,3.5,11.1-0.6,11.1-4.6v-52.6
		c0-0.7,0.6-1.4,1.4-1.4h5.9c0.7,0,1.4,0.6,1.4,1.4v52.6c0,9.1-5,14.4-13.6,14.4c-2.7,0-4.7,0-10.6-2.9l-12.1-6.9
		c-3-1.7-4.9-5-4.9-8.4v-53.3c0-3.5,1.8-6.7,4.9-8.4l46.1-26.7c2.9-1.6,6.8-1.6,9.7,0l46.1,26.7c3,1.7,4.9,5,4.9,8.4v53.3
		c0,3.5-1.8,6.7-4.9,8.4l-46.1,26.7C256.6,412.2,254.8,412.5,253.2,412.5z M267.4,375.9c-20.2,0-24.4-9.2-24.4-17.1
		c0-0.7,0.6-1.4,1.4-1.4h6c0.7,0,1.3,0.5,1.3,1.2c0.9,6.1,3.6,9.1,15.8,9.1c9.7,0,13.9-2.2,13.9-7.4c0-3-1.2-5.2-16.3-6.7
		c-12.6-1.3-20.5-4-20.5-14.1c0-9.4,7.9-14.9,21-14.9c14.8,0,22.1,5.1,23,16.2c0,0.3-0.1,0.7-0.3,1c-0.2,0.2-0.6,0.5-0.9,0.5h-6
		c-0.6,0-1.2-0.5-1.3-1c-1.4-6.4-5-8.4-14.4-8.4c-10.6,0-11.9,3.7-11.9,6.5c0,3.4,1.5,4.4,15.8,6.2c14.2,1.8,20.9,4.5,20.9,14.4
		C290.4,370.1,282.1,375.9,267.4,375.9z"/>
	<path class="st2" d="M110.1,204.2c0-2.1-1.2-4-3-5.1l-49-28.2c-0.8-0.5-1.7-0.7-2.7-0.8H55c-0.9,0-1.8,0.3-2.7,0.8l-49,28.2
		c-1.8,1-3,3-3,5.1L0.5,280c0,1,0.6,2.1,1.5,2.5c0.9,0.6,2.1,0.6,2.9,0L34,265.9c1.8-1,3-3,3-5.1v-35.5c0-2.1,1.2-4,3-5.1l12.4-7.2
		c0.9-0.6,2-0.8,3-0.8s2.1,0.2,2.9,0.8l12.4,7.2c1.8,1,3,3,3,5.1v35.5c0,2.1,1.2,4,3,5.1l29.1,16.6c0.9,0.6,2.1,0.6,3,0
		c0.9-0.5,1.5-1.5,1.5-2.5L110.1,204.2L110.1,204.2z"/>
	<path class="st2" d="M345.7,99.8c-0.9-0.5-2.1-0.5-2.9,0c-0.9,0.6-1.5,1.5-1.5,2.5v75.1c0,0.7-0.3,1.4-1,1.8
		c-0.7,0.3-1.4,0.3-2.1,0l-12.3-7.1c-1.8-1-4-1-5.9,0l-49,28.3c-1.8,1-3,3-3,5.1v56.5c0,2.1,1.2,4,3,5.1l49,28.3c1.8,1,4,1,5.9,0
		l49-28.3c1.8-1,3-3,3-5.1V121.3c0-2.2-1.2-4.2-3-5.2L345.7,99.8L345.7,99.8z M341.2,243.6c0,0.6-0.2,1-0.7,1.3l-16.8,9.7
		c-0.5,0.2-1,0.2-1.5,0l-16.8-9.7c-0.5-0.2-0.7-0.8-0.7-1.3v-19.4c0-0.6,0.2-1,0.7-1.3l16.8-9.7c0.5-0.2,1-0.2,1.5,0l16.8,9.7
		c0.5,0.2,0.7,0.8,0.7,1.3V243.6L341.2,243.6z"/>
	<g transform="translate(401.047404, 70.501129)">
		<path class="st2" d="M107.7,153.2c1.8-1,2.9-3,2.9-5.1v-13.8c0-2.1-1.2-4-2.9-5.1l-48.7-28.2c-1.8-1-4-1-5.9,0l-49,28.3
			c-1.8,1-3,3-3,5.1V191c0,2.1,1.2,4,3,5.1l48.7,27.7c1.8,1,4,1,5.8,0l29.5-16.4c0.9-0.5,1.5-1.5,1.5-2.5s-0.6-2.1-1.5-2.5L38.8,174
			c-0.9-0.6-1.5-1.5-1.5-2.5v-17.7c0-1,0.6-2.1,1.5-2.5l15.4-8.8c0.9-0.6,2.1-0.6,3,0l15.4,8.8c0.9,0.6,1.5,1.5,1.5,2.5v13.9
			c0,1,0.6,2.1,1.5,2.5c0.9,0.6,2.1,0.6,3,0L107.7,153.2L107.7,153.2z"/>
		<path class="st1" d="M55.4,150.5c0.3-0.2,0.8-0.2,1.2,0l9.4,5.4c0.3,0.2,0.6,0.6,0.6,1v10.9c0,0.5-0.2,0.8-0.6,1l-9.4,5.4
			c-0.3,0.2-0.8,0.2-1.2,0l-9.4-5.4c-0.3-0.2-0.6-0.6-0.6-1V157c0-0.5,0.2-0.8,0.6-1L55.4,150.5L55.4,150.5z"/>
	</g>
	<path class="st1" d="M246.3,260.3V204c0-2.1-1.3-4-3.1-5.1l-48.9-28.1c-0.6-0.3-1.2-0.6-1.8-0.7l53.5,91.4
		C246.2,261.2,246.3,260.8,246.3,260.3L246.3,260.3z"/>
	<path class="st1" d="M139.6,199c-1.8,1-3.1,3-3.1,5.1v56.3c0,2.1,1.4,4,3.1,5.1l48.9,28.1c1.2,0.7,2.4,0.9,3.8,0.7l-52.4-95.3
		L139.6,199L139.6,199z"/>
	<path class="st3" d="M243.3,265.4c1.4-0.8,2.4-2.2,2.9-3.7l-53.6-91.5c-1.4-0.2-2.9-0.1-4.2,0.7l-48.5,28l52.4,95.5
		c0.7-0.1,1.5-0.3,2.2-0.7L243.3,265.4L243.3,265.4z"/>
</g>
</svg>
