<?xml version="1.0" encoding="utf-8"?>
<!-- Generator: Adobe Illustrator 25.4.1, SVG Export Plug-In . SVG Version: 6.00 Build 0)  -->
<svg version="1.1"
	 id="svg2" inkscape:version="0.43" sodipodi:docbase="/home/sdeibel" sodipodi:docname="logo-python-inkscape.svg" sodipodi:version="0.32" xmlns:cc="http://web.resource.org/cc/" xmlns:dc="http://purl.org/dc/elements/1.1/" xmlns:inkscape="http://www.inkscape.org/namespaces/inkscape" xmlns:rdf="http://www.w3.org/1999/02/22-rdf-syntax-ns#" xmlns:sodipodi="http://inkscape.sourceforge.net/DTD/sodipodi-0.dtd" xmlns:svg="http://www.w3.org/2000/svg"
	 xmlns="http://www.w3.org/2000/svg" xmlns:xlink="http://www.w3.org/1999/xlink" x="0px" y="0px" viewBox="0 0 115 115"
	 style="enable-background:new 0 0 115 115;" xml:space="preserve">
<style type="text/css">
	.st0{opacity:0.8;fill:#F5F5F5;}
	.st1{fill:#F5F5F5;}
</style>
<sodipodi:namedview  bordercolor="#666666" borderopacity="1.0" gridtolerance="10.0" guidetolerance="10.0" height="40mm" id="base" inkscape:current-layer="svg2" inkscape:cx="250.73166" inkscape:cy="67.50975" inkscape:pageopacity="0.0" inkscape:pageshadow="2" inkscape:window-height="882" inkscape:window-width="1233" inkscape:window-x="0" inkscape:window-y="6" inkscape:zoom="2.1461642" objecttolerance="10.0" pagecolor="#ffffff" units="mm" width="210mm">
	</sodipodi:namedview>
<g>
	<path id="path1948" class="st0" d="M56.9,1.3c-4.6,0-9,0.4-12.8,1.1c-11.3,2-13.4,6.2-13.4,13.9v10.2h26.8V30H30.7H20.6
		C12.8,30,6,34.7,3.9,43.6c-2.5,10.2-2.6,16.6,0,27.3c1.9,7.9,6.5,13.6,14.3,13.6h9.2V72.2c0-8.8,7.7-16.7,16.7-16.7h26.8
		c7.5,0,13.4-6.1,13.4-13.6V16.3c0-7.3-6.1-12.7-13.4-13.9C66.2,1.6,61.5,1.3,56.9,1.3z M42.4,9.5c2.8,0,5,2.3,5,5.1s-2.3,5.1-5,5.1
		c-2.8,0-5-2.3-5-5.1S39.5,9.5,42.4,9.5z"/>
	<path id="path1950" class="st1" d="M87.6,30v11.9c0,9.2-7.8,17-16.8,17H44c-7.3,0-13.4,6.3-13.4,13.6V98c0,7.3,6.3,11.5,13.4,13.6
		c8.5,2.5,16.6,2.9,26.8,0c6.8-2,13.4-5.9,13.4-13.6V87.8H57.5v-3.4h26.8h13.4c7.8,0,10.7-5.4,13.4-13.6c2.8-8.4,2.7-16.5,0-27.3
		c-1.9-7.8-5.6-13.6-13.4-13.6L87.6,30L87.6,30z M72.6,94.6c2.8,0,5,2.3,5,5.1c0,2.8-2.3,5.1-5,5.1c-2.8,0-5-2.3-5-5.1
		C67.4,96.9,69.8,94.6,72.6,94.6z"/>
</g>
</svg>
