<svg xmlns="http://www.w3.org/2000/svg" viewBox="0 0 396.06 396.06"><defs><style>.cls-1{fill:#606060;}</style></defs><g id="Layer_2" data-name="Layer 2"><g id="Layer_1-2" data-name="Layer 1"><path class="cls-1" d="M198,0C88.66,0,0,88.66,0,198s88.66,198,198,198,198-88.66,198-198S307.4,0,198,0ZM50.09,120.62c0-6.28,1.79-8.5,8-10.34,8.27-2.45,16.8-3.51,25.31-4.62A239.6,239.6,0,0,1,125,104.27c14.19.62,28.26,2.28,42,6.06,6.21,1.7,7.78,3.68,7.79,10,0,8.91,0,17.82,0,26.73,0,8.16-2.42,11.24-10.26,13.93-16.93,5.81-34.49,6.46-52.11,6.67-14.23.05-28.38-.74-42.31-3.82-5.56-1.23-11.07-2.7-15.89-5.93A8.53,8.53,0,0,1,50,150.15C50.21,140.31,50.09,130.47,50.09,120.62Zm0,48.46a7,7,0,0,1,.66-3.62c.72-1.18,1.52-1.91,3-.83,5.76,4.22,12.61,5.58,19.38,6.92,18.53,3.65,37.29,3.8,56,2.79,11.34-.62,22.7-1.89,33.58-5.63a36.62,36.62,0,0,0,8.1-3.83c2.33-1.52,3.26-1.15,3.7,1.59a23.08,23.08,0,0,1,.2,3.72c0,9.63-.22,19.28.11,28.9.2,5.56-2.46,8.63-7,10.83-6.9,3.32-14.33,4.79-21.77,6a184.34,184.34,0,0,1-33.62,2,184.41,184.41,0,0,1-40.92-3.34c-5.77-1.16-11.48-2.69-16.6-5.79-3.12-1.89-4.84-4.34-4.87-8.3C49.94,190,49.85,179.54,50.1,169.08Zm118.13,93c-6.94,3.48-14.46,4.88-22,6.18a179,179,0,0,1-29.39,2.2c-17.8.1-35.63-.41-52.94-5.44a45.22,45.22,0,0,1-7.76-3.11c-4.27-2.15-6.42-5.34-6.28-10.39.26-9.1,0-18.23.08-27.34a24.89,24.89,0,0,1,.45-5.25c.61-2.71,2.08-3.27,4.44-1.88,6.26,3.7,13.25,5.31,20.27,6.47a212.48,212.48,0,0,0,41.76,3c15.2-.49,30.39-1.48,45.1-5.92a38.15,38.15,0,0,0,7.9-3.49c3.08-1.75,4.65-1.05,4.77,2.53.2,5.79.06,11.6.06,17.4h.09c0,4.87-.28,9.76.07,14.6C175.23,257,172.52,259.93,168.23,262.09Zm67.32-14.44Q231,258,220,259.28c-6.32.71-12.66.62-18.65-1.9-6.66-2.81-10.1-8.33-11.64-15.09-1.46-6.4-1.29-13-1.24-19.49,0-1.36.49-2.3,1.88-2.32q8.22-.15,16.45-.13c1.74,0,2.06,1.23,2.08,2.79,0,4.24-.36,8.5.27,12.72.53,3.56,2.1,4.95,5.25,4.72,2.53-.18,3.81-2,4.06-5.29.57-7.39-1.86-13.47-7.2-18.69-5.69-5.57-11.76-10.83-16.57-17.22-7.81-10.38-7.88-21.69-2.91-33.15,2.81-6.46,8.43-9.83,15.24-10.95A32,32,0,0,1,226.7,158c5.26,2.59,8.14,7.32,9.71,12.69a40.28,40.28,0,0,1,1.82,12.24c0,1.87-.73,2.63-2.57,2.59-2.69-.06-5.39,0-8.08,0h0c-2.38,0-4.78-.15-7.15,0-2.67.23-3.56-.9-3.32-3.4a24.4,24.4,0,0,0,0-3.42c-.15-3.28-1.85-4.83-4.91-4.52a4.6,4.6,0,0,0-4,5.85,17.62,17.62,0,0,0,5.16,8.69c5,4.79,10,9.58,14.92,14.48,5.16,5.16,9.14,11.14,10,18.52C239.2,230.5,239.21,239.26,235.55,247.65Zm58.88,16.12c-3.43,6.09-3.43,6.1-9.19,2.27-1-.68-2-1.41-3-2.12-4.16-2.88-8.18-4.7-13.85-4.44-14,.62-22.91-8.38-24-22.48-.58-7.13-.29-14.27-.23-21.4.09-11.4,0-22.8,0-34.2A32.49,32.49,0,0,1,246.47,168a20.6,20.6,0,0,1,15-12.32c7.89-1.77,15.72-1.52,22.8,2.8,7.73,4.73,10.29,12.46,10.56,21,.28,9.21.06,18.44.06,27.67h0c0,8.18,0,16.37,0,24.56.05,6.32-1,12.35-4.34,17.84-.88,1.45-1,2.74.86,3.57a4,4,0,0,1,.52.32C298,257.46,298,257.46,294.43,263.77Zm48.76-4.87c-11.81-.07-23.63-.1-35.44,0-2.81,0-3.52-1-3.5-3.64.1-16.06.05-32.13.05-48.19,0-15.86.06-31.72-.05-47.57,0-2.7.75-3.72,3.5-3.62,4.66.17,9.33.18,14,0,2.82-.11,3.47,1,3.46,3.67-.08,25.91,0,51.82-.12,77.73,0,3.07.9,4,3.87,3.83,4.76-.22,9.53,0,14.3-.09,2.19-.06,3,.83,2.95,2.92-.05,4-.07,8.08,0,12.12C346.26,258.29,345.29,258.91,343.19,258.9Z"/><path class="cls-1" d="M274,233.91a17,17,0,0,1-.54,3.68,3.66,3.66,0,0,1-3.4,3.08c-1.9.13-3.43-.27-4.42-2.14a11.13,11.13,0,0,1-1.17-5.39V207.06q0-13.2,0-26.39a7.94,7.94,0,0,1,1.25-4.71,4.17,4.17,0,0,1,7.7.92,15.8,15.8,0,0,1,.81,4.26C274.13,198.73,274.6,216.32,274,233.91Z"/><path class="cls-1" d="M58.63,139.59c-1.76.11-2.4-.36-2.49-1.52s.4-2,1.66-2.12a1.55,1.55,0,0,1,1.86,1.57C59.75,138.7,59.28,139.51,58.63,139.59Z"/><path class="cls-1" d="M61.59,241a1.83,1.83,0,0,1-1.82,2A1.61,1.61,0,0,1,58,241.2c0-1.18.47-2,1.78-2.07S61.38,239.84,61.59,241Z"/><path class="cls-1" d="M61.64,190.7c-.14,1-.56,1.81-1.62,1.93A1.72,1.72,0,0,1,58,190.87c0-1.05.29-2.07,1.67-2.15S61.19,189.79,61.64,190.7Z"/><path class="cls-1" d="M274,233.91a17,17,0,0,1-.54,3.68,3.66,3.66,0,0,1-3.4,3.08c-1.9.13-3.43-.27-4.42-2.14a11.13,11.13,0,0,1-1.17-5.39V207.06q0-13.2,0-26.39a7.94,7.94,0,0,1,1.25-4.71,4.17,4.17,0,0,1,7.7.92,15.8,15.8,0,0,1,.81,4.26C274.13,198.73,274.6,216.32,274,233.91Z"/></g></g></svg>