<svg xmlns="http://www.w3.org/2000/svg" viewBox="0 0 113 119">
	<g transform="translate(-5852 -3474)">
		<rect width="113" height="119" transform="translate(5852 3474)" fill="none"/>
		<path d="M36.22,118.027h0a36.86,36.86,0,0,1-23.929-8.91,36.461,36.461,0,0,1-6.065-6.7,33.644,33.644,0,0,1-5.7-25.4,30.067,30.067,0,0,1,4.7-11.8,31.947,31.947,0,0,1-3.45-10.35,33.492,33.492,0,0,1,.15-10.95,31.216,31.216,0,0,1,14.2-21.1l27.5-17.6A33.936,33.936,0,0,1,61.857,0,36.773,36.773,0,0,1,85.794,8.91a35.979,35.979,0,0,1,6.031,6.7,32.951,32.951,0,0,1,5.7,25.5,30.069,30.069,0,0,1-4.7,11.8,31.94,31.94,0,0,1,3.45,10.35,33.492,33.492,0,0,1-.15,10.95,31.215,31.215,0,0,1-14.2,21.1l-27.5,17.5A33.893,33.893,0,0,1,36.22,118.027ZM15.125,75.713h0l-.5,1.6c-.1.449-.2.88-.3,1.3s-.2.852-.3,1.3a20.758,20.758,0,0,0,.212,8.025,19.659,19.659,0,0,0,3.288,7.275,21.795,21.795,0,0,0,23.4,8.7,21.6,21.6,0,0,0,5.6-2.5l27.5-17.5a19.052,19.052,0,0,0,5.65-5.45,18.713,18.713,0,0,0,2.95-7.25,20.758,20.758,0,0,0-.212-8.025,19.658,19.658,0,0,0-3.288-7.275,21.793,21.793,0,0,0-23.4-8.7,21.57,21.57,0,0,0-5.6,2.5l-10.5,6.7a8.681,8.681,0,0,1-1.688.7l-.012,0a6.826,6.826,0,0,1-1.71.219,6.529,6.529,0,0,1-5.39-2.82,6.237,6.237,0,0,1-1-4.6,5.691,5.691,0,0,1,2.6-3.8l27.4-17.5a8.654,8.654,0,0,1,1.7-.7,6.82,6.82,0,0,1,1.711-.22,6.526,6.526,0,0,1,5.388,2.82,6.681,6.681,0,0,1,1.1,4.1l-.1,1,1,.3a36.637,36.637,0,0,1,10.8,5.4l1.4,1,.5-1.6a25.582,25.582,0,0,0,.7-2.6,20.758,20.758,0,0,0-.213-8.025,19.661,19.661,0,0,0-3.287-7.275,21.792,21.792,0,0,0-23.4-8.7,21.572,21.572,0,0,0-5.6,2.5l-27.5,17.5a19.052,19.052,0,0,0-5.65,5.45,18.712,18.712,0,0,0-2.95,7.25,19.827,19.827,0,0,0,.163,8.025,20.373,20.373,0,0,0,3.237,7.275,21.794,21.794,0,0,0,23.4,8.7,18.574,18.574,0,0,0,5.6-2.4l10.5-6.7a8.648,8.648,0,0,1,1.7-.7,6.823,6.823,0,0,1,1.712-.22,6.527,6.527,0,0,1,5.389,2.82,6.235,6.235,0,0,1,1,4.6,5.684,5.684,0,0,1-2.6,3.8l-27.4,17.5a8.708,8.708,0,0,1-1.7.7,6.507,6.507,0,0,1-1.636.21,6.57,6.57,0,0,1-6.568-7.008l.1-1-1-.3a36.616,36.616,0,0,1-10.8-5.4l-1.4-1Z" transform="translate(5859 3474)" fill="#ff3e00"/>
	</g>
</svg>