<?xml version="1.0" encoding="utf-8"?>
<!-- Generator: Adobe Illustrator 25.4.1, SVG Export Plug-In . SVG Version: 6.00 Build 0)  -->
<svg version="1.1" id="Layer_1" xmlns="http://www.w3.org/2000/svg" xmlns:xlink="http://www.w3.org/1999/xlink" x="0px" y="0px"
	 viewBox="0 0 54 54" style="enable-background:new 0 0 54 54;" xml:space="preserve">
<style type="text/css">
	.st0{fill-rule:evenodd;clip-rule:evenodd;fill:#06B6D4;}
</style>
<path class="st0" d="M27,10.8c-7.2,0-11.7,3.6-13.5,10.8c2.7-3.6,5.9-4.9,9.5-4c2.1,0.5,3.5,2,5.1,3.7c2.6,2.7,5.7,5.8,12.4,5.8
	c7.2,0,11.7-3.6,13.5-10.8c-2.7,3.6-5.8,4.9-9.5,4c-2.1-0.5-3.5-2-5.1-3.7C36.8,13.9,33.7,10.8,27,10.8z M13.5,27
	C6.3,27,1.8,30.6,0,37.8c2.7-3.6,5.8-5,9.4-4c2.1,0.5,3.5,2,5.1,3.7c2.6,2.7,5.7,5.8,12.4,5.8c7.2,0,11.7-3.6,13.5-10.8
	c-2.7,3.6-5.8,5-9.5,4c-2.1-0.5-3.5-2-5.1-3.7C23.3,30.1,20.2,27,13.5,27z"/>
</svg>
