<?xml version="1.0" encoding="utf-8"?>
<!-- Generator: Adobe Illustrator 25.4.1, SVG Export Plug-In . SVG Version: 6.00 Build 0)  -->
<svg version="1.1" id="Layer_1" xmlns="http://www.w3.org/2000/svg" xmlns:xlink="http://www.w3.org/1999/xlink" x="0px" y="0px"
	 viewBox="0 0 240 240" style="enable-background:new 0 0 240 240;" xml:space="preserve">
<style type="text/css">
	.st0{fill:none;stroke:#000000;stroke-width:6.9193;stroke-miterlimit:10;}
</style>
<path class="st0" d="M236,46.4v147.3c0,23.2-18.4,42-41.1,42H45.1c-22.7,0-41.1-18.8-41.1-42V46.4c0-23.2,18.4-42,41.1-42h149.9
	C217.7,4.3,236,23.1,236,46.4z"/>
<path d="M204.7,158.7c-0.1-2.2-0.2-4.2-0.2-6V57.5c0,0,0-0.1,0-0.2c-0.1-0.4-0.5-0.8-1-0.7h-20.3c-0.7,0-1,0.4-1,1.1v31.6
	c-1.2-0.1-2.2-0.1-3.1-0.2c-0.9-0.1-1.6-0.1-2.1-0.1c-9.9,0-18.3,1.9-25.3,5.8c-6.6,3.6-12.1,9-15.9,15.5
	c-3.7,6.4-5.6,13.7-5.5,21.1c0,9.1,1.8,16.7,5.5,22.8c3.6,5.9,8.8,10.7,15.1,13.6c6.7,3.1,14.1,4.6,21.5,4.5
	c5.2,0,10.3-0.5,15.4-1.4c5.6-1,11.1-2.6,16.3-4.8c0.7-0.3,1-0.9,1-1.6C205,162.8,204.9,160.8,204.7,158.7z M182.2,152.3
	c-1.2,0.4-2.3,0.6-3.6,0.5c-1.3,0.1-2.7,0.2-4.2,0.2c-2.8,0-5.6-0.4-8.3-1.3c-2.6-0.8-4.9-2.2-6.8-4c-2-2-3.5-4.4-4.5-7.1
	c-1.2-3.3-1.8-6.8-1.7-10.3c0-5.2,1.1-9.5,3.3-12.7s5.1-5.7,8.5-7.4c3.5-1.8,7.4-2.6,11.3-2.6c1.1,0,2.2,0.1,3.3,0.2
	c0.9,0.1,1.8,0.3,2.7,0.5V152.3z"/>
<path d="M128.4,170c-0.1,0.4-0.5,0.1-1.1,0.2h-22.9c-1.6,0-2.7-0.1-3.4-1.1c-2.1-4.2-4.3-8.3-6.4-12.5c-2.1-4.1-4.4-8.3-6.8-12.6
	s-4.8-8.6-7.2-13h-0.2c-2.1,4.3-4.4,8.6-6.7,12.9c-2.3,4.3-4.6,8.6-6.8,12.8c-2.3,4.2-4.6,8.5-6.9,12.6c-0.4,1-1.2,1.1-2.3,1.1h-22
	c-0.4,0-0.7,0.2-0.7-0.3c-0.1-0.4,0-0.8,0.2-1.1l31.1-51L36,66.7c-0.3-0.4-0.4-0.8-0.2-1c0.2-0.3,0.6-0.4,1-0.4h22.7
	c0.5,0,1,0.1,1.4,0.2c0.4,0.2,0.7,0.5,1,0.9c1.9,4.3,4.1,8.6,6.4,12.9c2.4,4.3,4.7,8.5,7.2,12.7c2.4,4.2,4.6,8.4,6.7,12.7h0.2
	c2.1-4.4,4.3-8.7,6.5-12.9c2.2-4.2,4.5-8.4,6.8-12.6s4.5-8.5,6.7-12.6c0.1-0.4,0.3-0.8,0.6-1c0.4-0.2,0.8-0.3,1.3-0.2h21.1
	c0.5-0.1,1,0.2,1.1,0.7c0.1,0.1-0.1,0.5-0.3,0.7l-30,49.5l32,52.5C128.4,169.2,128.5,169.6,128.4,170z"/>
</svg>
